<svg version="1.1" id="Layer_1" xmlns="http://www.w3.org/2000/svg" xmlns:xlink="http://www.w3.org/1999/xlink" x="0px" y="0px"
	 width="100%" viewBox="0 0 1024 1536" enable-background="new 0 0 1024 1536" xml:space="preserve">

<path fill="none" opacity="1.000000" stroke="none" 
	d="
M1.000000,596.000000 
	C1.000000,397.333344 1.000000,199.166672 1.000000,1.000000 
	C342.333344,1.000000 683.666687,1.000000 1025.000000,1.000000 
	C1025.000000,513.000000 1025.000000,1025.000000 1025.000000,1537.000000 
	C683.666687,1537.000000 342.333344,1537.000000 1.000000,1537.000000 
	C1.000000,1223.500000 1.000000,910.000000 1.000000,596.000000 
M65.042931,400.934204 
	C65.083778,417.625549 65.124634,434.316864 65.044090,451.937469 
	C65.084999,472.961029 65.125908,493.984558 65.044449,515.937256 
	C65.085205,538.960632 65.125961,561.984070 65.042305,585.936584 
	C65.085800,605.294861 65.129288,624.653198 65.046173,644.939575 
	C65.088379,661.294373 65.130577,677.649170 65.038338,694.932190 
	C65.080925,714.957581 65.123505,734.983032 65.036720,755.936829 
	C65.079071,779.293457 65.121422,802.650024 65.032845,826.935120 
	C65.076569,849.626221 65.120300,872.317261 65.032768,895.936401 
	C65.077484,918.960632 65.122192,941.984924 65.034004,965.936951 
	C65.078506,989.960327 65.123009,1013.983704 65.031448,1038.934692 
	C65.076530,1062.625854 65.121613,1086.316895 65.029587,1110.935425 
	C65.019646,1169.767334 64.978004,1228.599121 65.078728,1287.430908 
	C65.084755,1290.952148 65.898506,1294.568359 66.897308,1297.976074 
	C73.572495,1320.750000 93.478699,1334.006836 116.854492,1334.005981 
	C378.848083,1333.996582 640.841675,1334.005981 902.835266,1333.958374 
	C908.257874,1333.957397 913.703003,1333.548340 919.098938,1332.968872 
	C943.166077,1330.383545 960.884399,1309.309326 960.904907,1286.359985 
	C961.073608,1097.531494 961.000793,908.702698 960.999756,719.874023 
	C960.999207,631.042847 961.033508,542.211670 960.880005,453.380737 
	C960.872375,448.952850 959.220947,444.527771 958.053162,439.456329 
	C956.512817,435.942139 955.764832,431.689453 953.296082,429.040527 
	C942.143738,417.073944 930.504517,405.561157 918.788635,393.271332 
	C904.541077,379.145508 890.293579,365.019714 875.791016,350.280334 
	C860.228516,334.837341 844.665955,319.394348 828.836487,303.332458 
	C814.593018,289.205048 800.349548,275.077637 785.832092,260.334808 
	C778.671814,253.175201 771.704285,245.808014 764.287781,238.924454 
	C758.778625,233.811157 752.687134,229.325226 746.268921,224.080200 
	C739.451050,222.052444 732.676758,218.470932 725.807434,218.278229 
	C701.892456,217.607346 677.944641,218.110321 653.080383,218.023453 
	C621.723022,218.070862 590.365723,218.118271 558.079224,218.025101 
	C534.054321,218.071884 510.029449,218.118668 485.075195,218.029922 
	C464.717651,218.076614 444.360077,218.123322 423.073395,218.036148 
	C403.384613,218.080795 383.695831,218.125443 363.077606,218.033875 
	C341.719635,218.078171 320.361694,218.122482 298.074219,218.034500 
	C276.050812,218.078552 254.027405,218.122604 231.074326,218.035614 
	C208.384583,218.079285 185.694839,218.122971 162.074860,218.037643 
	C145.268555,218.026581 128.455765,217.715195 111.657486,218.076889 
	C88.174141,218.582520 70.448578,232.851410 66.332619,255.288742 
	C64.147964,267.197906 65.442596,279.745331 65.048073,292.934662 
	C65.087273,310.625000 65.126472,328.315369 65.046120,346.935608 
	C65.085457,364.625153 65.124802,382.314667 65.042931,400.934204 
z"/>
<path fill="#68C6D9" opacity="1.000000" stroke="none" 
	d="
M958.334839,440.101410 
	C959.220947,444.527771 960.872375,448.952850 960.880005,453.380737 
	C961.033508,542.211670 960.999207,631.042847 960.999756,719.874023 
	C961.000793,908.702698 961.073608,1097.531494 960.904907,1286.359985 
	C960.884399,1309.309326 943.166077,1330.383545 919.098938,1332.968872 
	C913.703003,1333.548340 908.257874,1333.957397 902.835266,1333.958374 
	C640.841675,1334.005981 378.848083,1333.996582 116.854492,1334.005981 
	C93.478699,1334.006836 73.572495,1320.750000 66.897308,1297.976074 
	C65.898506,1294.568359 65.084755,1290.952148 65.078728,1287.430908 
	C64.978004,1228.599121 65.019646,1169.767334 65.455887,1110.446289 
	C67.113213,1109.505371 68.535271,1109.310547 69.544807,1108.560669 
	C76.976105,1103.039673 84.263885,1097.324829 91.717178,1091.834473 
	C99.015297,1086.458252 106.455612,1081.275146 113.902054,1076.470947 
	C113.980469,1140.933228 114.101036,1204.932007 113.870773,1268.929688 
	C113.839310,1277.675293 120.435570,1284.167114 129.000977,1284.160400 
	C384.328339,1283.962891 639.655884,1284.000000 894.983398,1284.000000 
	C906.621521,1284.000000 911.999512,1278.622070 911.999634,1266.979980 
	C912.002869,1005.152649 912.005432,743.325256 912.015259,481.497894 
	C912.015381,479.334656 912.114075,477.171387 912.494507,474.925415 
	C913.681152,474.353821 914.599487,473.945831 915.389771,473.363983 
	C926.426392,465.238647 937.505493,457.168854 948.434204,448.900421 
	C951.944214,446.244781 955.046204,443.049683 958.334839,440.101410 
z"/>
<path fill="#2840AC" opacity="1.000000" stroke="none" 
	d="
M163.005096,218.166656 
	C185.694839,218.122971 208.384583,218.079285 231.458466,218.425034 
	C230.155594,220.587311 228.679916,222.642258 226.748581,224.088959 
	C209.127258,237.288757 191.415390,250.367615 173.775742,263.543091 
	C172.657333,264.378479 171.920578,265.724823 170.541168,266.898926 
	C155.782974,266.975677 141.489868,266.982361 127.196762,266.999908 
	C119.019226,267.009918 114.054504,271.935364 114.003143,280.107208 
	C113.934212,291.073151 113.889786,302.039246 113.475845,313.027832 
	C111.487434,313.801849 109.675011,314.304108 108.257797,315.344604 
	C97.588402,323.178284 87.049454,331.190186 76.351074,338.983490 
	C72.801208,341.569427 68.904045,343.678558 65.165672,346.005707 
	C65.126472,328.315369 65.087273,310.625000 65.435600,292.387421 
	C72.133087,287.279663 78.461998,282.745056 84.749100,278.153229 
	C98.138496,268.374207 111.535950,258.605804 124.873573,248.756500 
	C136.068222,240.489716 147.231079,232.177612 158.286224,223.726273 
	C160.173157,222.283783 161.447662,220.040161 163.005096,218.166656 
z"/>
<path fill="#457DC0" opacity="1.000000" stroke="none" 
	d="
M654.009277,218.166992 
	C677.944641,218.110321 701.892456,217.607346 725.807434,218.278229 
	C732.676758,218.470932 739.451050,222.052444 746.194214,224.493942 
	C744.967957,225.568008 743.734192,226.117859 742.677307,226.905151 
	C725.945679,239.368881 709.228699,251.852310 692.550293,264.386963 
	C691.830078,264.928284 691.512756,266.005768 690.543579,266.905792 
	C657.722473,266.929840 625.365662,266.881561 593.117981,266.527435 
	C593.785339,265.623657 594.269165,264.927002 594.912659,264.442200 
	C613.265442,250.615173 631.656555,236.838608 649.962463,222.949921 
	C651.586304,221.717957 652.673035,219.778091 654.009277,218.166992 
z"/>
<path fill="#4071BC" opacity="1.000000" stroke="none" 
	d="
M653.544800,218.095215 
	C652.673035,219.778091 651.586304,221.717957 649.962463,222.949921 
	C631.656555,236.838608 613.265442,250.615173 594.912659,264.442200 
	C594.269165,264.927002 593.785339,265.623657 592.653564,266.599182 
	C561.389221,266.929413 530.698364,266.882019 500.037598,266.493103 
	C500.829071,265.119171 501.400360,263.836731 502.380249,263.091675 
	C517.290161,251.755722 532.329163,240.587997 547.156799,229.146042 
	C551.403076,225.869293 555.073730,221.846420 559.008362,218.165665 
	C590.365723,218.118271 621.723022,218.070862 653.544800,218.095215 
z"/>
<path fill="#3A65B8" opacity="1.000000" stroke="none" 
	d="
M558.543823,218.095367 
	C555.073730,221.846420 551.403076,225.869293 547.156799,229.146042 
	C532.329163,240.587997 517.290161,251.755722 502.380249,263.091675 
	C501.400360,263.836731 500.829071,265.119171 499.573120,266.563385 
	C474.387268,266.928345 449.695984,266.881531 425.084045,266.509766 
	C426.352722,264.846161 427.355225,263.257935 428.759705,262.206848 
	C446.118622,249.215576 463.557678,236.331284 480.908203,223.328873 
	C482.822021,221.894669 484.315918,219.900116 486.004547,218.165436 
	C510.029449,218.118668 534.054321,218.071884 558.543823,218.095367 
z"/>
<path fill="#57A2CD" opacity="1.000000" stroke="none" 
	d="
M829.103455,303.951355 
	C844.665955,319.394348 860.228516,334.837341 875.744019,350.882324 
	C869.850037,356.071320 864.010010,360.667328 858.154175,365.243073 
	C850.095032,371.540588 842.023804,377.822662 833.647827,383.977356 
	C817.518799,367.906860 801.699768,351.970398 786.178467,335.864197 
	C800.685364,325.113403 814.894409,314.532379 829.103455,303.951355 
z"/>
<path fill="#5DAFD1" opacity="1.000000" stroke="none" 
	d="
M65.167503,1038.007080 
	C65.123009,1013.983704 65.078506,989.960327 65.437042,965.397583 
	C74.718147,958.580383 83.590935,952.294983 92.475906,946.026978 
	C99.587357,941.009949 106.713570,936.013916 113.899628,931.472534 
	C113.921555,955.959961 113.877045,979.983582 113.496552,1004.079285 
	C112.399391,1004.473389 111.539497,1004.660950 110.891571,1005.137085 
	C97.563271,1014.931030 84.274086,1024.778198 70.932503,1034.553955 
	C69.133400,1035.872192 67.095078,1036.864136 65.167503,1038.007080 
z"/>
<path fill="#62BAD5" opacity="1.000000" stroke="none" 
	d="
M65.099472,1038.470947 
	C67.095078,1036.864136 69.133400,1035.872192 70.932503,1034.553955 
	C84.274086,1024.778198 97.563271,1014.931030 110.891571,1005.137085 
	C111.539497,1004.660950 112.399391,1004.473389 113.564575,1004.543091 
	C113.923561,1028.625610 113.878540,1052.316406 113.833527,1076.007202 
	C106.455612,1081.275146 99.015297,1086.458252 91.717178,1091.834473 
	C84.263885,1097.324829 76.976105,1103.039673 69.544807,1108.560669 
	C68.535271,1109.310547 67.113213,1109.505371 65.524445,1109.982666 
	C65.121613,1086.316895 65.076530,1062.625854 65.099472,1038.470947 
z"/>
<path fill="#4C8CC5" opacity="1.000000" stroke="none" 
	d="
M65.163773,826.006653 
	C65.121422,802.650024 65.079071,779.293457 65.451645,755.446777 
	C69.102783,752.726501 72.404678,750.585144 75.562721,748.249329 
	C84.474510,741.657593 93.226082,734.843933 102.253494,728.416443 
	C105.824547,725.873779 109.957336,724.120178 113.899002,722.471558 
	C113.921265,745.959473 113.878876,768.983032 113.500259,792.077881 
	C111.739883,792.962830 110.213928,793.639648 108.907333,794.611389 
	C95.901779,804.283691 82.950966,814.029663 69.925957,823.675537 
	C68.529160,824.709900 66.760117,825.241699 65.163773,826.006653 
z"/>
<path fill="#3A65B8" opacity="1.000000" stroke="none" 
	d="
M65.166733,585.007446 
	C65.125961,561.984070 65.085205,538.960632 65.432938,515.390381 
	C78.546593,505.396698 91.246986,495.916260 104.014465,486.527008 
	C107.175652,484.202271 110.554375,482.173340 113.894318,480.473022 
	C113.914833,504.294525 113.874130,527.651428 113.496727,551.080322 
	C103.928772,557.778809 94.732262,564.454468 85.454674,571.015381 
	C78.747810,575.758301 71.933258,580.348938 65.166733,585.007446 
z"/>
<path fill="#57A2CD" opacity="1.000000" stroke="none" 
	d="
M113.833199,931.008545 
	C106.713570,936.013916 99.587357,941.009949 92.475906,946.026978 
	C83.590935,952.294983 74.718147,958.580383 65.503494,964.933716 
	C65.122192,941.984924 65.077484,918.960632 65.433441,895.397278 
	C67.003761,894.253845 68.284813,893.799011 69.326157,893.022705 
	C82.585075,883.137512 95.791023,873.181152 109.070290,863.323547 
	C110.463928,862.289001 112.238472,861.767517 113.901855,861.472046 
	C113.922684,884.960266 113.877937,907.984436 113.833199,931.008545 
z"/>
<path fill="#5196C9" opacity="1.000000" stroke="none" 
	d="
M113.836273,861.007935 
	C112.238472,861.767517 110.463928,862.289001 109.070290,863.323547 
	C95.791023,873.181152 82.585075,883.137512 69.326157,893.022705 
	C68.284813,893.799011 67.003761,894.253845 65.499077,894.933228 
	C65.120300,872.317261 65.076569,849.626221 65.098305,826.470886 
	C66.760117,825.241699 68.529160,824.709900 69.925957,823.675537 
	C82.950966,814.029663 95.901779,804.283691 108.907333,794.611389 
	C110.213928,793.639648 111.739883,792.962830 113.565750,792.542114 
	C113.923729,815.626038 113.879997,838.317017 113.836273,861.007935 
z"/>
<path fill="#2438A9" opacity="1.000000" stroke="none" 
	d="
M162.539978,218.102142 
	C161.447662,220.040161 160.173157,222.283783 158.286224,223.726273 
	C147.231079,232.177612 136.068222,240.489716 124.873573,248.756500 
	C111.535950,258.605804 98.138496,268.374207 84.749100,278.153229 
	C78.461998,282.745056 72.133087,287.279663 65.494888,291.922424 
	C65.442596,279.745331 64.147964,267.197906 66.332619,255.288742 
	C70.448578,232.851410 88.174141,218.582520 111.657486,218.076889 
	C128.455765,217.715195 145.268555,218.026581 162.539978,218.102142 
z"/>
<path fill="#62B9D5" opacity="1.000000" stroke="none" 
	d="
M958.193970,439.778870 
	C955.046204,443.049683 951.944214,446.244781 948.434204,448.900421 
	C937.505493,457.168854 926.426392,465.238647 915.389771,473.363983 
	C914.599487,473.945831 913.681152,474.353821 912.417969,474.481567 
	C913.315247,463.708740 907.361511,456.330566 900.921936,449.643463 
	C892.973450,441.389648 884.261169,433.871338 876.194946,425.887909 
	C881.079407,422.448151 885.708130,419.235535 890.204102,415.846802 
	C899.852661,408.574371 909.432617,401.211029 919.040649,393.884949 
	C930.504517,405.561157 942.143738,417.073944 953.296082,429.040527 
	C955.764832,431.689453 956.512817,435.942139 958.193970,439.778870 
z"/>
<path fill="#2C48AE" opacity="1.000000" stroke="none" 
	d="
M171.006271,266.833435 
	C171.920578,265.724823 172.657333,264.378479 173.775742,263.543091 
	C191.415390,250.367615 209.127258,237.288757 226.748581,224.088959 
	C228.679916,222.642258 230.155594,220.587311 231.923309,218.490570 
	C254.027405,218.122604 276.050812,218.078552 298.458130,218.424454 
	C297.917633,219.964661 297.184906,221.371780 296.039795,222.226257 
	C280.866638,233.548660 265.556183,244.688705 250.470718,256.125885 
	C246.325607,259.268555 242.810120,263.241669 238.540741,266.899750 
	C215.719269,266.921661 193.362762,266.877533 171.006271,266.833435 
z"/>
<path fill="#5CAED1" opacity="1.000000" stroke="none" 
	d="
M918.914673,393.578125 
	C909.432617,401.211029 899.852661,408.574371 890.204102,415.846802 
	C885.708130,419.235535 881.079407,422.448151 875.888672,425.762268 
	C873.387085,423.901703 871.473633,422.052063 869.634216,420.131531 
	C862.630371,412.818909 855.732300,405.402985 848.632996,398.184662 
	C843.882507,393.354614 838.859009,388.793091 833.957764,384.111359 
	C842.023804,377.822662 850.095032,371.540588 858.154175,365.243073 
	C864.010010,360.667328 869.850037,356.071320 875.871582,351.189148 
	C890.293579,365.019714 904.541077,379.145508 918.914673,393.578125 
z"/>
<path fill="#5093C8" opacity="1.000000" stroke="none" 
	d="
M828.969971,303.641907 
	C814.894409,314.532379 800.685364,325.113403 785.873108,335.736816 
	C771.498962,321.890808 757.728088,308.002472 744.130493,293.818665 
	C744.995483,292.817841 745.614075,292.017548 746.389465,291.421204 
	C759.616821,281.249237 772.863647,271.102539 786.106079,260.950256 
	C800.349548,275.077637 814.593018,289.205048 828.969971,303.641907 
z"/>
<path fill="#3050B1" opacity="1.000000" stroke="none" 
	d="
M239.005722,266.833710 
	C242.810120,263.241669 246.325607,259.268555 250.470718,256.125885 
	C265.556183,244.688705 280.866638,233.548660 296.039795,222.226257 
	C297.184906,221.371780 297.917633,219.964661 298.922882,218.490601 
	C320.361694,218.122482 341.719635,218.078171 363.459778,218.426849 
	C357.857971,223.679474 352.038116,228.760040 345.856079,233.353149 
	C332.596893,243.204514 319.120392,252.763077 305.829651,262.572754 
	C304.542908,263.522491 303.932983,265.389282 302.543823,266.898407 
	C281.054474,266.922180 260.030090,266.877930 239.005722,266.833710 
z"/>
<path fill="#4B88C4" opacity="1.000000" stroke="none" 
	d="
M785.969116,260.642517 
	C772.863647,271.102539 759.616821,281.249237 746.389465,291.421204 
	C745.614075,292.017548 744.995483,292.817841 743.822510,293.680603 
	C736.395447,286.895569 729.448608,279.954224 722.504456,273.010193 
	C718.492615,268.998474 713.853760,266.720734 707.977539,266.936981 
	C702.329834,267.144836 696.665100,266.886810 691.007812,266.833496 
	C691.512756,266.005768 691.830078,264.928284 692.550293,264.386963 
	C709.228699,251.852310 725.945679,239.368881 742.677307,226.905151 
	C743.734192,226.117859 744.967957,225.568008 746.487244,224.733765 
	C752.687134,229.325226 758.778625,233.811157 764.287781,238.924454 
	C771.704285,245.808014 778.671814,253.175201 785.969116,260.642517 
z"/>
<path fill="#355AB4" opacity="1.000000" stroke="none" 
	d="
M113.833099,480.008423 
	C110.554375,482.173340 107.175652,484.202271 104.014465,486.527008 
	C91.246986,495.916260 78.546593,505.396698 65.494118,514.925781 
	C65.125908,493.984558 65.084999,472.961029 65.458313,451.445892 
	C75.322685,444.396118 84.753639,437.810028 94.229568,431.289337 
	C100.732269,426.814636 107.297493,422.430817 113.895432,418.471252 
	C113.915100,439.293579 113.874092,459.651001 113.833099,480.008423 
z"/>
<path fill="#355AB4" opacity="1.000000" stroke="none" 
	d="
M303.008850,266.830383 
	C303.932983,265.389282 304.542908,263.522491 305.829651,262.572754 
	C319.120392,252.763077 332.596893,243.204514 345.856079,233.353149 
	C352.038116,228.760040 357.857971,223.679474 363.924500,218.494965 
	C383.695831,218.125443 403.384613,218.080795 423.458008,218.426331 
	C421.850098,221.016754 420.153198,223.614594 417.816528,225.352051 
	C403.686279,235.858780 389.334900,246.068649 375.229523,256.608032 
	C371.194550,259.622925 367.730469,263.401825 363.539734,266.897278 
	C343.052856,266.919586 323.030884,266.874969 303.008850,266.830383 
z"/>
<path fill="#375FB6" opacity="1.000000" stroke="none" 
	d="
M364.004608,266.830383 
	C367.730469,263.401825 371.194550,259.622925 375.229523,256.608032 
	C389.334900,246.068649 403.686279,235.858780 417.816528,225.352051 
	C420.153198,223.614594 421.850098,221.016754 423.922577,218.493256 
	C444.360077,218.123322 464.717651,218.076614 485.539856,218.097687 
	C484.315918,219.900116 482.822021,221.894669 480.908203,223.328873 
	C463.557678,236.331284 446.118622,249.215576 428.759705,262.206848 
	C427.355225,263.257935 426.352722,264.846161 424.619354,266.577484 
	C404.051727,266.923584 384.028168,266.876984 364.004608,266.830383 
z"/>
<path fill="#4781C2" opacity="1.000000" stroke="none" 
	d="
M113.834351,722.007263 
	C109.957336,724.120178 105.824547,725.873779 102.253494,728.416443 
	C93.226082,734.843933 84.474510,741.657593 75.562721,748.249329 
	C72.404678,750.585144 69.102783,752.726501 65.516327,754.982544 
	C65.123505,734.983032 65.080925,714.957581 65.463425,694.443665 
	C66.981560,693.588867 68.263283,693.473877 69.138107,692.816895 
	C76.943642,686.955261 84.598587,680.891113 92.455772,675.100891 
	C99.475845,669.927368 106.695778,665.025085 113.894684,660.467285 
	C113.919357,681.290039 113.876862,701.648682 113.834351,722.007263 
z"/>
<path fill="#4071BC" opacity="1.000000" stroke="none" 
	d="
M65.104523,585.472046 
	C71.933258,580.348938 78.747810,575.758301 85.454674,571.015381 
	C94.732262,564.454468 103.928772,557.778809 113.558929,551.544800 
	C113.914482,571.628723 113.871140,591.320068 113.475266,611.034912 
	C103.534462,617.752136 93.975464,624.488403 84.347527,631.124634 
	C78.007347,635.494812 71.567818,639.720886 65.172775,644.011475 
	C65.129288,624.653198 65.085800,605.294861 65.104523,585.472046 
z"/>
<path fill="#2C48AE" opacity="1.000000" stroke="none" 
	d="
M65.105896,346.470642 
	C68.904045,343.678558 72.801208,341.569427 76.351074,338.983490 
	C87.049454,331.190186 97.588402,323.178284 108.257797,315.344604 
	C109.675011,314.304108 111.487434,313.801849 113.535614,313.492859 
	C113.915024,331.291748 113.875679,348.648132 113.500534,366.076324 
	C112.123993,366.647125 110.967003,366.990662 110.060242,367.668793 
	C98.934952,375.988861 87.900970,384.432129 76.716957,392.671967 
	C73.053749,395.370850 69.025459,397.574219 65.164139,400.004211 
	C65.124802,382.314667 65.085457,364.625153 65.105896,346.470642 
z"/>
<path fill="#3050B1" opacity="1.000000" stroke="none" 
	d="
M65.103531,400.469177 
	C69.025459,397.574219 73.053749,395.370850 76.716957,392.671967 
	C87.900970,384.432129 98.934952,375.988861 110.060242,367.668793 
	C110.967003,366.990662 112.123993,366.647125 113.561096,366.541321 
	C113.916565,383.958496 113.875671,400.982452 113.834763,418.006409 
	C107.297493,422.430817 100.732269,426.814636 94.229568,431.289337 
	C84.753639,437.810028 75.322685,444.396118 65.519012,450.981262 
	C65.124634,434.316864 65.083778,417.625549 65.103531,400.469177 
z"/>
<path fill="#457DC0" opacity="1.000000" stroke="none" 
	d="
M65.109474,644.475525 
	C71.567818,639.720886 78.007347,635.494812 84.347527,631.124634 
	C93.975464,624.488403 103.534462,617.752136 113.538498,611.498901 
	C113.911995,627.960754 113.869743,643.981873 113.827499,660.003052 
	C106.695778,665.025085 99.475845,669.927368 92.455772,675.100891 
	C84.598587,680.891113 76.943642,686.955261 69.138107,692.816895 
	C68.263283,693.473877 66.981560,693.588867 65.530647,693.979553 
	C65.130577,677.649170 65.088379,661.294373 65.109474,644.475525 
z"/>
<path fill="none" opacity="1.000000" stroke="none" 
	d="
M113.894669,660.467285 
	C113.869743,643.981873 113.911995,627.960754 113.891022,611.475525 
	C113.871140,591.320068 113.914482,571.628723 113.895630,551.472778 
	C113.874130,527.651428 113.914833,504.294525 113.894310,480.473022 
	C113.874092,459.651001 113.915100,439.293579 113.895432,418.471283 
	C113.875671,400.982452 113.916565,383.958496 113.896896,366.469543 
	C113.875679,348.648132 113.915024,331.291748 113.894608,313.470337 
	C113.889786,302.039246 113.934212,291.073151 114.003143,280.107208 
	C114.054504,271.935364 119.019226,267.009918 127.196762,266.999908 
	C141.489868,266.982361 155.782974,266.975677 170.541168,266.898926 
	C193.362762,266.877533 215.719269,266.921661 238.540741,266.899750 
	C260.030090,266.877930 281.054474,266.922180 302.543854,266.898376 
	C323.030884,266.874969 343.052856,266.919586 363.539734,266.897278 
	C384.028168,266.876984 404.051727,266.923584 424.539978,266.902466 
	C449.695984,266.881531 474.387268,266.928345 499.543030,266.904877 
	C530.698364,266.882019 561.389221,266.929413 592.544434,266.905060 
	C625.365662,266.881561 657.722473,266.929840 690.543579,266.905823 
	C696.665100,266.886810 702.329834,267.144836 707.977539,266.936981 
	C713.853760,266.720734 718.492615,268.998474 722.504456,273.010193 
	C729.448608,279.954224 736.395447,286.895569 743.649170,293.976074 
	C757.728088,308.002472 771.498962,321.890808 785.575317,335.906555 
	C801.699768,351.970398 817.518799,367.906860 833.647827,383.977356 
	C838.859009,388.793091 843.882507,393.354614 848.632996,398.184662 
	C855.732300,405.402985 862.630371,412.818909 869.634216,420.131531 
	C871.473633,422.052063 873.387085,423.901703 875.572754,425.909546 
	C884.261169,433.871338 892.973450,441.389648 900.921936,449.643463 
	C907.361511,456.330566 913.315247,463.708740 912.090210,474.564331 
	C912.114075,477.171387 912.015381,479.334656 912.015259,481.497894 
	C912.005432,743.325256 912.002869,1005.152649 911.999634,1266.979980 
	C911.999512,1278.622070 906.621521,1284.000000 894.983398,1284.000000 
	C639.655884,1284.000000 384.328339,1283.962891 129.000977,1284.160400 
	C120.435570,1284.167114 113.839310,1277.675293 113.870773,1268.929688 
	C114.101036,1204.932007 113.980469,1140.933228 113.902054,1076.470947 
	C113.878540,1052.316406 113.923561,1028.625610 113.900558,1004.470947 
	C113.877045,979.983582 113.921555,955.959961 113.899628,931.472473 
	C113.877937,907.984436 113.922684,884.960266 113.901848,861.472046 
	C113.879997,838.317017 113.923729,815.626038 113.901978,792.470886 
	C113.878876,768.983032 113.921265,745.959473 113.899010,722.471558 
	C113.876862,701.648682 113.919357,681.290039 113.894669,660.467285 
M636.059753,516.488953 
	C632.745667,508.312561 629.431580,500.136139 626.003418,491.203613 
	C622.280090,481.471069 618.556763,471.738556 614.746033,461.287292 
	C610.866943,451.842377 606.987854,442.397461 603.000610,432.199402 
	C602.066101,429.966644 601.092529,427.749298 600.204468,425.498230 
	C597.409363,418.413391 595.649902,417.045929 588.934448,417.014008 
	C585.957825,416.999847 582.980591,417.111938 579.075317,417.024963 
	C565.384460,417.072968 551.693665,417.121002 537.074463,417.028473 
	C521.469360,417.022186 505.862885,417.133667 490.259949,416.945648 
	C484.812256,416.880005 481.321991,419.679596 479.548309,424.104431 
	C472.786865,440.972351 466.409637,457.994263 459.264252,475.323090 
	C453.471588,490.201080 447.678925,505.079071 441.260986,520.329224 
	C435.469513,535.205139 429.678040,550.081116 423.254395,565.336365 
	C419.826965,573.937256 416.331818,582.512024 412.990906,591.146362 
	C409.544708,600.052917 406.248596,609.017456 402.263184,618.308777 
	C395.135315,636.193359 388.007477,654.077942 380.243988,672.336914 
	C379.884033,673.408447 379.566528,674.496460 379.157745,675.549072 
	C373.407959,690.354553 367.645782,705.155212 361.252502,720.312439 
	C357.902313,728.701843 354.489502,737.066895 351.219177,745.487305 
	C347.796997,754.298584 344.511749,763.163025 340.847260,772.665649 
	C339.220062,776.511169 337.525543,780.329773 335.977142,784.206726 
	C328.685089,802.464905 321.433075,820.739075 313.838257,839.684509 
	C308.269043,853.619873 302.687347,867.550232 297.133636,881.491699 
	C288.708160,902.642090 280.302063,923.800110 271.240814,945.321838 
	C268.914886,951.013489 266.532440,956.682861 264.272980,962.400757 
	C255.596985,984.356934 246.971573,1006.333069 238.303146,1028.292236 
	C235.158630,1036.257935 239.016403,1041.994873 247.607910,1041.997559 
	C274.769348,1042.006226 301.930786,1041.981201 329.092163,1042.018311 
	C334.204315,1042.025269 338.404205,1040.380493 340.778809,1035.664917 
	C343.022003,1031.210449 345.129028,1026.666626 346.964691,1022.030945 
	C358.040985,994.059631 369.159882,966.103699 379.969574,938.029053 
	C384.497894,926.268127 390.634552,916.564819 403.929901,913.485901 
	C409.929474,912.096558 412.063416,914.050720 410.540192,919.945862 
	C408.357452,928.393188 407.409790,936.778625 408.853363,945.624695 
	C411.214539,960.093872 417.562775,972.510986 426.978241,983.309937 
	C437.368652,995.227356 450.290924,1004.073853 464.435760,1011.031494 
	C479.312225,1018.348999 495.072540,1023.179199 511.157166,1027.042236 
	C515.700073,1028.133301 518.947693,1030.814331 518.963928,1035.852051 
	C519.040771,1059.680542 519.028931,1083.509521 518.967529,1107.338013 
	C518.957031,1111.396729 517.483765,1114.440552 512.966614,1115.623413 
	C508.763336,1116.723999 504.612152,1118.233643 500.664062,1120.053589 
	C493.010406,1123.581299 485.923828,1127.707642 483.874847,1137.033325 
	C482.829926,1141.788940 485.119965,1149.251221 489.072693,1152.030396 
	C497.392059,1157.879761 506.505066,1156.955688 515.474487,1154.671875 
	C520.812866,1153.312622 523.876038,1154.764404 524.014282,1160.111572 
	C524.296692,1171.039062 524.725525,1181.962891 524.975403,1192.890869 
	C525.113281,1198.920410 529.351135,1203.558960 534.940796,1204.044678 
	C544.842102,1204.904663 549.391296,1199.732178 549.856873,1193.578979 
	C550.965393,1178.927246 551.676697,1164.222778 551.814575,1149.532837 
	C551.862732,1144.396851 554.062561,1142.436646 558.047852,1140.324707 
	C568.923767,1134.561035 579.733215,1128.628784 590.242920,1122.228027 
	C603.389343,1114.221436 613.793640,1103.455811 620.921143,1089.632446 
	C626.761536,1078.305176 629.192749,1066.519775 627.024292,1053.828369 
	C623.974731,1035.980103 613.975830,1022.576233 599.659851,1012.445312 
	C588.676392,1004.672668 576.316711,999.213562 563.487000,995.047302 
	C559.456665,993.738525 557.867676,991.600952 557.900574,987.173035 
	C558.101501,960.179688 558.061523,933.183960 557.940308,906.189636 
	C557.920471,901.778870 559.348450,899.924316 563.958313,899.939453 
	C598.284668,900.052673 632.611572,900.020874 666.938293,899.984070 
	C673.731323,899.976746 678.427307,902.954834 681.031311,909.227783 
	C683.261719,914.600708 685.614380,919.926636 687.700745,925.354919 
	C701.516357,961.299744 715.192139,997.298706 729.135681,1033.193726 
	C731.374390,1038.956787 734.666199,1042.322021 742.207520,1042.078369 
	C752.028687,1041.761108 761.867920,1042.000854 771.699341,1042.000854 
	C789.695862,1042.000854 807.692383,1042.015503 825.688904,1041.994263 
	C834.003540,1041.984375 837.857422,1036.705200 835.308716,1028.783936 
	C834.320557,1025.712891 833.157166,1022.695862 832.008240,1019.679138 
	C825.379395,1002.273621 818.820862,984.840698 812.065186,967.484436 
	C804.506287,948.064758 796.698486,928.742126 789.124695,909.328186 
	C784.958435,898.648682 781.101807,887.848816 777.015442,877.137634 
	C769.289246,856.886169 761.547607,836.640320 753.721008,816.427551 
	C744.556152,792.758667 735.324524,769.115601 726.062012,745.484741 
	C720.443604,731.150757 714.717712,716.858826 709.029785,702.552063 
	C701.395996,683.351013 693.752380,664.153931 686.022766,644.175049 
	C683.685669,637.980713 681.456177,631.743042 678.988098,625.601318 
	C674.342529,614.040771 669.559387,602.535522 664.969055,590.243530 
	C663.305603,585.896545 661.684326,581.532776 659.970093,577.205933 
	C656.124023,567.498230 652.231812,557.808838 648.057800,547.470215 
	C644.161011,537.352051 640.264282,527.233948 636.059753,516.488953 
z"/>
<path fill="#68C5D9" opacity="1.000000" stroke="none" 
	d="
M686.112915,644.955139 
	C693.752380,664.153931 701.395996,683.351013 709.029785,702.552063 
	C714.717712,716.858826 720.443604,731.150757 726.062012,745.484741 
	C735.324524,769.115601 744.556152,792.758667 753.721008,816.427551 
	C761.547607,836.640320 769.289246,856.886169 777.015442,877.137634 
	C781.101807,887.848816 784.958435,898.648682 789.124695,909.328186 
	C796.698486,928.742126 804.506287,948.064758 812.065186,967.484436 
	C818.820862,984.840698 825.379395,1002.273621 832.008240,1019.679138 
	C833.157166,1022.695862 834.320557,1025.712891 835.308716,1028.783936 
	C837.857422,1036.705200 834.003540,1041.984375 825.688904,1041.994263 
	C807.692383,1042.015503 789.695862,1042.000854 771.699341,1042.000854 
	C761.867920,1042.000854 752.028687,1041.761108 742.207520,1042.078369 
	C734.666199,1042.322021 731.374390,1038.956787 729.135681,1033.193726 
	C715.192139,997.298706 701.516357,961.299744 687.700745,925.354919 
	C685.614380,919.926636 683.261719,914.600708 681.031311,909.227783 
	C678.427307,902.954834 673.731323,899.976746 666.938293,899.984070 
	C632.611572,900.020874 598.284668,900.052673 563.958313,899.939453 
	C559.348450,899.924316 557.920471,901.778870 557.940308,906.189636 
	C558.061523,933.183960 558.101501,960.179688 557.900574,987.173035 
	C557.867676,991.600952 559.456665,993.738525 563.487000,995.047302 
	C576.316711,999.213562 588.676392,1004.672668 599.659851,1012.445312 
	C613.975830,1022.576233 623.974731,1035.980103 627.024292,1053.828369 
	C629.192749,1066.519775 626.761536,1078.305176 620.921143,1089.632446 
	C613.793640,1103.455811 603.389343,1114.221436 590.242920,1122.228027 
	C579.733215,1128.628784 568.923767,1134.561035 558.047852,1140.324707 
	C554.062561,1142.436646 551.862732,1144.396851 551.814575,1149.532837 
	C551.676697,1164.222778 550.965393,1178.927246 549.856873,1193.578979 
	C549.391296,1199.732178 544.842102,1204.904663 534.940796,1204.044678 
	C529.351135,1203.558960 525.113281,1198.920410 524.975403,1192.890869 
	C524.725525,1181.962891 524.296692,1171.039062 524.014282,1160.111572 
	C523.876038,1154.764404 520.812866,1153.312622 515.474487,1154.671875 
	C506.505066,1156.955688 497.392059,1157.879761 489.072693,1152.030396 
	C485.119965,1149.251221 482.829926,1141.788940 483.874847,1137.033325 
	C485.923828,1127.707642 493.010406,1123.581299 500.664062,1120.053589 
	C504.612152,1118.233643 508.763336,1116.723999 512.966614,1115.623413 
	C517.483765,1114.440552 518.957031,1111.396729 518.967529,1107.338013 
	C519.028931,1083.509521 519.040771,1059.680542 518.963928,1035.852051 
	C518.947693,1030.814331 515.700073,1028.133301 511.157166,1027.042236 
	C495.072540,1023.179199 479.312225,1018.348999 464.435760,1011.031494 
	C450.290924,1004.073853 437.368652,995.227356 426.978241,983.309937 
	C417.562775,972.510986 411.214539,960.093872 408.853363,945.624695 
	C407.409790,936.778625 408.357452,928.393188 410.540192,919.945862 
	C412.063416,914.050720 409.929474,912.096558 403.929901,913.485901 
	C390.634552,916.564819 384.497894,926.268127 379.969574,938.029053 
	C369.159882,966.103699 358.040985,994.059631 346.964691,1022.030945 
	C345.129028,1026.666626 343.022003,1031.210449 340.778809,1035.664917 
	C338.404205,1040.380493 334.204315,1042.025269 329.092163,1042.018311 
	C301.930786,1041.981201 274.769348,1042.006226 247.607910,1041.997559 
	C239.016403,1041.994873 235.158630,1036.257935 238.303146,1028.292236 
	C246.971573,1006.333069 255.596985,984.356934 264.272980,962.400757 
	C266.532440,956.682861 268.914886,951.013489 271.934814,945.127197 
	C274.656342,943.870300 276.870789,943.058594 278.682556,941.707031 
	C296.626282,928.321167 314.475830,914.809143 332.407562,901.407104 
	C348.484009,889.391663 364.625549,877.463379 380.746857,865.508057 
	C394.331177,855.434204 407.938416,845.391174 421.501434,835.288818 
	C422.803955,834.318604 423.864807,833.023926 425.391968,832.062073 
	C427.019623,832.832520 428.291412,833.929688 429.566986,833.934082 
	C456.896484,834.028503 484.226471,834.016235 511.556244,833.977295 
	C515.077393,833.972290 517.159790,832.060364 516.946411,828.498230 
	C516.633240,823.269104 516.286499,818.007874 515.406189,812.853882 
	C513.651184,802.579285 508.195709,793.870483 503.126709,784.814270 
	C509.610596,779.724182 515.908325,774.914185 522.230896,770.137085 
	C540.851379,756.068115 559.481628,742.012268 578.426697,728.122131 
	C579.017578,728.883850 579.297363,729.471313 579.561096,730.065918 
	C587.328186,747.573914 586.899292,764.372070 575.326660,780.268921 
	C564.873413,794.628174 557.378113,810.044495 557.937012,828.433960 
	C558.059082,832.453003 559.546204,834.053040 563.574585,834.041077 
	C590.887207,833.960083 618.200195,834.019165 645.513062,833.981567 
	C650.904480,833.974182 652.280090,832.108765 650.380127,826.897583 
	C646.726501,816.876343 642.829834,806.943237 638.991333,796.989990 
	C631.773499,778.273804 624.522461,759.570312 617.291077,740.859314 
	C612.577576,728.663269 607.874390,716.463257 603.535889,704.118408 
	C609.596619,699.985413 615.371399,696.112061 620.964722,691.992371 
	C640.465515,677.629150 659.886475,663.157715 679.390076,648.798279 
	C681.454895,647.278015 683.863770,646.224976 686.112915,644.955139 
M480.447723,908.931335 
	C473.452545,911.304688 468.361298,916.348389 463.925323,921.805115 
	C459.804504,926.874207 455.849365,933.176636 458.598938,939.710571 
	C461.326599,946.192383 465.336090,952.722839 470.408417,957.510071 
	C481.676147,968.144531 495.953766,973.924866 510.512512,978.730469 
	C515.417664,980.349548 516.993591,978.883911 516.995667,973.466064 
	C517.003967,951.651489 517.001404,929.836853 516.997620,908.022278 
	C516.996521,901.635071 515.644104,899.889343 509.413269,901.147766 
	C499.858459,903.077576 490.496735,905.963562 480.447723,908.931335 
M563.236572,1089.957886 
	C569.768982,1084.525269 576.533997,1079.344360 582.766724,1073.587280 
	C588.706116,1068.101196 588.563416,1060.246094 582.963379,1054.505005 
	C577.180237,1048.576172 570.204102,1044.708740 562.187012,1042.577515 
	C557.489014,1041.328613 556.157776,1042.058960 556.017334,1046.887329 
	C555.637756,1059.936646 555.274780,1072.986938 555.025696,1086.039185 
	C554.897400,1092.763062 556.283081,1093.453003 563.236572,1089.957886 
z"/>
<path fill="#61B7D4" opacity="1.000000" stroke="none" 
	d="
M425.037903,831.879883 
	C423.864807,833.023926 422.803955,834.318604 421.501434,835.288818 
	C407.938416,845.391174 394.331177,855.434204 380.746857,865.508057 
	C364.625549,877.463379 348.484009,889.391663 332.407562,901.407104 
	C314.475830,914.809143 296.626282,928.321167 278.682556,941.707031 
	C276.870789,943.058594 274.656342,943.870300 272.258301,944.943726 
	C280.302063,923.800110 288.708160,902.642090 297.133636,881.491699 
	C302.687347,867.550232 308.269043,853.619873 314.354919,839.319763 
	C318.726105,836.422729 322.689972,834.040833 326.415405,831.331116 
	C339.855682,821.555176 353.278656,811.752991 366.588745,801.801025 
	C380.820404,791.160034 394.889160,780.301453 409.080627,769.606384 
	C422.082245,759.808167 435.072723,749.991272 448.238220,740.416504 
	C452.593292,737.249207 457.477570,734.809631 462.056274,732.418457 
	C456.628326,746.687012 451.280579,760.580811 445.895660,774.460266 
	C438.859589,792.595337 431.776855,810.712341 424.795776,828.868530 
	C424.469971,829.716003 424.939026,830.869141 425.037903,831.879883 
z"/>
<path fill="#549DCB" opacity="1.000000" stroke="none" 
	d="
M614.833374,462.006042 
	C618.556763,471.738556 622.280090,481.471069 625.714233,491.656830 
	C616.960632,498.230927 608.436951,504.271820 600.043823,510.488953 
	C580.956909,524.627441 561.934143,538.852417 542.497314,553.011658 
	C536.996521,551.125122 533.564697,552.343201 530.994263,557.348694 
	C529.417419,560.419434 528.311523,563.731995 526.732910,566.750977 
	C525.028320,567.114868 523.364624,567.368408 522.174316,568.256409 
	C498.186371,586.151428 474.285553,604.163269 450.298126,622.059021 
	C430.595581,636.758057 410.834991,651.380127 391.017609,665.923828 
	C387.861053,668.240295 384.269867,669.964539 380.879639,671.962524 
	C388.007477,654.077942 395.135315,636.193359 402.943359,618.121948 
	C404.550079,617.610901 405.626740,617.489929 406.381348,616.932739 
	C426.977661,601.726501 447.603912,586.559570 468.094757,571.211914 
	C496.166779,550.185913 524.097900,528.971802 552.157104,507.928619 
	C566.123535,497.454376 580.223328,487.157593 594.296753,476.826782 
	C601.101807,471.831421 607.985352,466.942932 614.833374,462.006042 
z"/>
<path fill="#5196C9" opacity="1.000000" stroke="none" 
	d="
M614.789673,461.646667 
	C607.985352,466.942932 601.101807,471.831421 594.296753,476.826782 
	C580.223328,487.157593 566.123535,497.454376 552.157104,507.928619 
	C524.097900,528.971802 496.166779,550.185913 468.094757,571.211914 
	C447.603912,586.559570 426.977661,601.726501 406.381348,616.932739 
	C405.626740,617.489929 404.550079,617.610901 403.255157,617.945923 
	C406.248596,609.017456 409.544708,600.052917 412.990906,591.146362 
	C416.331818,582.512024 419.826965,573.937256 423.938904,565.135864 
	C425.676910,564.505737 426.877869,564.274231 427.761597,563.616394 
	C439.080200,555.191284 450.329071,546.672546 461.642975,538.241028 
	C489.877441,517.199707 518.136475,496.191345 546.385132,475.168976 
	C565.293518,461.097534 584.200989,447.024750 603.108826,432.952545 
	C606.987854,442.397461 610.866943,451.842377 614.789673,461.646667 
z"/>
<path fill="#5CAED1" opacity="1.000000" stroke="none" 
	d="
M462.119934,732.037354 
	C457.477570,734.809631 452.593292,737.249207 448.238220,740.416504 
	C435.072723,749.991272 422.082245,759.808167 409.080627,769.606384 
	C394.889160,780.301453 380.820404,791.160034 366.588745,801.801025 
	C353.278656,811.752991 339.855682,821.555176 326.415405,831.331116 
	C322.689972,834.040833 318.726105,836.422729 314.519196,838.981262 
	C321.433075,820.739075 328.685089,802.464905 335.977142,784.206726 
	C337.525543,780.329773 339.220062,776.511169 341.334808,772.253479 
	C353.425293,763.306641 365.061615,754.816895 376.623932,746.227539 
	C397.779480,730.511536 418.902008,714.751038 440.016693,698.980164 
	C450.367920,691.248779 460.557373,683.294861 471.041931,675.750061 
	C476.485321,671.832947 482.411682,668.587158 488.065765,665.426636 
	C483.003113,678.940308 478.060760,692.091125 472.963226,705.181580 
	C469.460388,714.177002 465.742004,723.088440 462.119934,732.037354 
z"/>
<path fill="#62B9D5" opacity="1.000000" stroke="none" 
	d="
M686.067871,644.565063 
	C683.863770,646.224976 681.454895,647.278015 679.390076,648.798279 
	C659.886475,663.157715 640.465515,677.629150 620.964722,691.992371 
	C615.371399,696.112061 609.596619,699.985413 603.429077,703.796143 
	C596.286743,686.117249 589.620361,668.613831 583.182007,650.858765 
	C589.568176,646.094116 595.774048,641.644592 601.875000,637.055481 
	C616.456116,626.087463 630.916382,614.957336 645.573059,604.091736 
	C651.802734,599.473389 658.402100,595.353638 664.833435,591.007324 
	C669.559387,602.535522 674.342529,614.040771 678.988098,625.601318 
	C681.456177,631.743042 683.685669,637.980713 686.067871,644.565063 
z"/>
<path fill="#5AA8CF" opacity="1.000000" stroke="none" 
	d="
M488.119873,665.038086 
	C482.411682,668.587158 476.485321,671.832947 471.041931,675.750061 
	C460.557373,683.294861 450.367920,691.248779 440.016693,698.980164 
	C418.902008,714.751038 397.779480,730.511536 376.623932,746.227539 
	C365.061615,754.816895 353.425293,763.306641 341.494507,771.922791 
	C344.511749,763.163025 347.796997,754.298584 351.219177,745.487305 
	C354.489502,737.066895 357.902313,728.701843 361.938965,720.123535 
	C363.553284,719.611633 364.619659,719.483032 365.387787,718.935730 
	C373.908539,712.865051 382.477203,706.855164 390.850708,700.585510 
	C409.065216,686.947571 427.112122,673.085510 445.345856,659.473511 
	C459.059021,649.236206 472.956940,639.246338 486.771301,629.144470 
	C494.126770,623.765747 501.479431,618.383179 508.895172,613.376648 
	C505.302063,623.027405 501.716980,632.332092 497.970825,641.571472 
	C494.783508,649.432739 491.410645,657.218811 488.119873,665.038086 
z"/>
<path fill="#4F91C7" opacity="1.000000" stroke="none" 
	d="
M603.054688,432.575989 
	C584.200989,447.024750 565.293518,461.097534 546.385132,475.168976 
	C518.136475,496.191345 489.877441,517.199707 461.642975,538.241028 
	C450.329071,546.672546 439.080200,555.191284 427.761597,563.616394 
	C426.877869,564.274231 425.676910,564.505737 424.254974,564.946228 
	C429.678040,550.081116 435.469513,535.205139 441.942474,520.132202 
	C444.068939,519.193176 445.656982,518.641785 446.937317,517.680542 
	C464.746735,504.309753 482.441772,490.785706 500.309082,477.493134 
	C525.113708,459.039429 550.055359,440.770081 574.883606,422.347931 
	C576.810730,420.917999 578.307068,418.907379 580.003662,417.166687 
	C582.980591,417.111938 585.957825,416.999847 588.934448,417.014008 
	C595.649902,417.045929 597.409363,418.413391 600.204468,425.498230 
	C601.092529,427.749298 602.066101,429.966644 603.054688,432.575989 
z"/>
<path fill="#57A2CD" opacity="1.000000" stroke="none" 
	d="
M508.833344,613.002319 
	C501.479431,618.383179 494.126770,623.765747 486.771301,629.144470 
	C472.956940,639.246338 459.059021,649.236206 445.345856,659.473511 
	C427.112122,673.085510 409.065216,686.947571 390.850708,700.585510 
	C382.477203,706.855164 373.908539,712.865051 365.387787,718.935730 
	C364.619659,719.483032 363.553284,719.611633 362.256012,719.945862 
	C367.645782,705.155212 373.407959,690.354553 379.157745,675.549072 
	C379.566528,674.496460 379.884033,673.408447 380.561829,672.149719 
	C384.269867,669.964539 387.861053,668.240295 391.017609,665.923828 
	C410.834991,651.380127 430.595581,636.758057 450.298126,622.059021 
	C474.285553,604.163269 498.186371,586.151428 522.174316,568.256409 
	C523.364624,567.368408 525.028320,567.114868 526.726440,567.131165 
	C525.960938,570.230591 524.936096,572.763123 523.920837,575.299438 
	C518.890259,587.866516 513.862244,600.434570 508.833344,613.002319 
z"/>
<path fill="#5DAFD1" opacity="1.000000" stroke="none" 
	d="
M664.901245,590.625427 
	C658.402100,595.353638 651.802734,599.473389 645.573059,604.091736 
	C630.916382,614.957336 616.456116,626.087463 601.875000,637.055481 
	C595.774048,641.644592 589.568176,646.094116 582.851807,650.679871 
	C580.194702,645.168518 578.102600,639.581665 575.995178,634.000732 
	C572.987366,626.035339 569.968262,618.074280 567.180176,609.860107 
	C569.052307,608.216919 570.624084,606.724487 572.355286,605.448120 
	C596.485657,587.657104 620.648926,569.910706 644.756226,552.088562 
	C646.166260,551.046143 647.167114,549.450256 648.358398,548.112000 
	C652.231812,557.808838 656.124023,567.498230 659.970093,577.205933 
	C661.684326,581.532776 663.305603,585.896545 664.901245,590.625427 
z"/>
<path fill="#4C8CC5" opacity="1.000000" stroke="none" 
	d="
M579.539490,417.095825 
	C578.307068,418.907379 576.810730,420.917999 574.883606,422.347931 
	C550.055359,440.770081 525.113708,459.039429 500.309082,477.493134 
	C482.441772,490.785706 464.746735,504.309753 446.937317,517.680542 
	C445.656982,518.641785 444.068939,519.193176 442.255096,519.946106 
	C447.678925,505.079071 453.471588,490.201080 459.947205,475.129211 
	C462.658569,473.871368 464.857788,473.041321 466.687592,471.705322 
	C478.348206,463.191223 489.937012,454.578552 501.530823,445.973175 
	C512.987000,437.469971 524.440735,428.962921 535.830444,420.371277 
	C536.805115,419.635986 537.290283,418.251770 538.002808,417.169037 
	C551.693665,417.121002 565.384460,417.072968 579.539490,417.095825 
z"/>
<path fill="#5AA8CF" opacity="1.000000" stroke="none" 
	d="
M648.208130,547.791138 
	C647.167114,549.450256 646.166260,551.046143 644.756226,552.088562 
	C620.648926,569.910706 596.485657,587.657104 572.355286,605.448120 
	C570.624084,606.724487 569.052307,608.216919 566.848511,609.673950 
	C562.511841,599.529968 558.733154,589.320923 555.182007,578.859863 
	C563.285400,572.836060 571.192566,567.106445 579.030701,561.283813 
	C596.186707,548.539185 613.332703,535.780579 630.412231,522.934021 
	C632.611755,521.279602 634.392700,519.068848 636.367493,517.115784 
	C640.264282,527.233948 644.161011,537.352051 648.208130,547.791138 
z"/>
<path fill="#57A2CD" opacity="1.000000" stroke="none" 
	d="
M636.213623,516.802368 
	C634.392700,519.068848 632.611755,521.279602 630.412231,522.934021 
	C613.332703,535.780579 596.186707,548.539185 579.030701,561.283813 
	C571.192566,567.106445 563.285400,572.836060 554.851929,578.671997 
	C550.491272,570.171570 546.688293,561.606873 542.885315,553.042236 
	C561.934143,538.852417 580.956909,524.627441 600.043823,510.488953 
	C608.436951,504.271820 616.960632,498.230927 625.771301,492.034882 
	C629.431580,500.136139 632.745667,508.312561 636.213623,516.802368 
z"/>
<path fill="#4B88C4" opacity="1.000000" stroke="none" 
	d="
M537.538635,417.098755 
	C537.290283,418.251770 536.805115,419.635986 535.830444,420.371277 
	C524.440735,428.962921 512.987000,437.469971 501.530823,445.973175 
	C489.937012,454.578552 478.348206,463.191223 466.687592,471.705322 
	C464.857788,473.041321 462.658569,473.871368 460.259521,474.947021 
	C466.409637,457.994263 472.786865,440.972351 479.548309,424.104431 
	C481.321991,419.679596 484.812256,416.880005 490.259949,416.945648 
	C505.862885,417.133667 521.469360,417.022186 537.538635,417.098755 
z"/>
<path fill="none" opacity="1.000000" stroke="none" 
	d="
M542.497314,553.011658 
	C546.688293,561.606873 550.491272,570.171570 554.624390,578.924072 
	C558.733154,589.320923 562.511841,599.529968 566.622314,609.925171 
	C569.968262,618.074280 572.987366,626.035339 575.995178,634.000732 
	C578.102600,639.581665 580.194702,645.168518 582.623779,650.931580 
	C589.620361,668.613831 596.286743,686.117249 603.059875,703.942810 
	C607.874390,716.463257 612.577576,728.663269 617.291077,740.859314 
	C624.522461,759.570312 631.773499,778.273804 638.991333,796.989990 
	C642.829834,806.943237 646.726501,816.876343 650.380127,826.897583 
	C652.280090,832.108765 650.904480,833.974182 645.513062,833.981567 
	C618.200195,834.019165 590.887207,833.960083 563.574585,834.041077 
	C559.546204,834.053040 558.059082,832.453003 557.937012,828.433960 
	C557.378113,810.044495 564.873413,794.628174 575.326660,780.268921 
	C586.899292,764.372070 587.328186,747.573914 579.561096,730.065918 
	C579.297363,729.471313 579.017578,728.883850 578.287598,727.799561 
	C574.353943,723.500305 571.151733,719.393311 567.353882,715.941711 
	C552.233582,702.199951 530.890991,700.306641 513.650085,710.426025 
	C496.423309,720.537109 488.703705,735.401978 489.901093,755.364746 
	C490.602295,767.054565 495.028687,776.762329 502.951874,785.109375 
	C508.195709,793.870483 513.651184,802.579285 515.406189,812.853882 
	C516.286499,818.007874 516.633240,823.269104 516.946411,828.498230 
	C517.159790,832.060364 515.077393,833.972290 511.556244,833.977295 
	C484.226471,834.016235 456.896484,834.028503 429.566986,833.934082 
	C428.291412,833.929688 427.019623,832.832520 425.391968,832.062073 
	C424.939026,830.869141 424.469971,829.716003 424.795776,828.868530 
	C431.776855,810.712341 438.859589,792.595337 445.895660,774.460266 
	C451.280579,760.580811 456.628326,746.687012 462.056305,732.418457 
	C465.742004,723.088440 469.460388,714.177002 472.963226,705.181580 
	C478.060760,692.091125 483.003113,678.940308 488.065765,665.426636 
	C491.410645,657.218811 494.783508,649.432739 497.970825,641.571472 
	C501.716980,632.332092 505.302063,623.027405 508.895172,613.376648 
	C513.862244,600.434570 518.890259,587.866516 523.920837,575.299438 
	C524.936096,572.763123 525.960938,570.230591 526.987793,567.316162 
	C528.311523,563.731995 529.417419,560.419434 530.994263,557.348694 
	C533.564697,552.343201 536.996521,551.125122 542.497314,553.011658 
z"/>
<path fill="#62BAD5" opacity="1.000000" stroke="none" 
	d="
M503.126709,784.814270 
	C495.028687,776.762329 490.602295,767.054565 489.901093,755.364746 
	C488.703705,735.401978 496.423309,720.537109 513.650085,710.426025 
	C530.890991,700.306641 552.233582,702.199951 567.353882,715.941711 
	C571.151733,719.393311 574.353943,723.500305 577.968994,727.628662 
	C559.481628,742.012268 540.851379,756.068115 522.230896,770.137085 
	C515.908325,774.914185 509.610596,779.724182 503.126709,784.814270 
z"/>
<path fill="none" opacity="1.000000" stroke="none" 
	d="
M480.750397,908.687500 
	C490.496735,905.963562 499.858459,903.077576 509.413269,901.147766 
	C515.644104,899.889343 516.996521,901.635071 516.997620,908.022278 
	C517.001404,929.836853 517.003967,951.651489 516.995667,973.466064 
	C516.993591,978.883911 515.417664,980.349548 510.512512,978.730469 
	C495.953766,973.924866 481.676147,968.144531 470.408417,957.510071 
	C465.336090,952.722839 461.326599,946.192383 458.598938,939.710571 
	C455.849365,933.176636 459.804504,926.874207 463.925323,921.805115 
	C468.361298,916.348389 473.452545,911.304688 480.750397,908.687500 
z"/>
<path fill="none" opacity="1.000000" stroke="none" 
	d="
M562.855164,1090.022217 
	C556.283081,1093.453003 554.897400,1092.763062 555.025696,1086.039185 
	C555.274780,1072.986938 555.637756,1059.936646 556.017334,1046.887329 
	C556.157776,1042.058960 557.489014,1041.328613 562.187012,1042.577515 
	C570.204102,1044.708740 577.180237,1048.576172 582.963379,1054.505005 
	C588.563416,1060.246094 588.706116,1068.101196 582.766724,1073.587280 
	C576.533997,1079.344360 569.768982,1084.525269 562.855164,1090.022217 
z"/>
</svg>